<svg viewBox="0 0 18 18" fill="currentColor" xmlns="http://www.w3.org/2000/svg">
  <path fill-rule="evenodd" clip-rule="evenodd" d="M12.75 2.25h1.125c1.036 0 1.875.84 1.875 1.875v9.755c0 1.036-.84 1.875-1.875 1.875h-9.75A1.875 1.875 0 012.25 13.88V4.125c0-1.036.84-1.875 1.875-1.875H5.25v-.375a.375.375 0 11.75 0v.375h6v-.375a.375.375 0 01.75 0v.375zM12 3H6v.375a.375.375 0 11-.75 0V3H4.125C3.504 3 3 3.504 3 4.125V6h12V4.125C15 3.504 14.496 3 13.875 3H12.75v.375a.375.375 0 01-.75 0V3zM3 6.75h12v7.13c0 .622-.504 1.125-1.125 1.125h-9.75A1.125 1.125 0 013 13.88V6.75zm.75 1.125c0-.207.168-.375.375-.375h1.5c.207 0 .375.168.375.375v1.5a.375.375 0 01-.375.375h-1.5a.375.375 0 01-.375-.375v-1.5zM4.5 9v-.75h.75V9H4.5z"/>
</svg>