<svg xmlns="http://www.w3.org/2000/svg" viewBox="0 0 822.91 150.61">
  <path class="frame-bottom" d="M822.42 23.14V0h-4.47v42.71c0 2.76 0 6.28-2.38 5-10.24-5.72-7.84-2.1-7.84-13S803 20.9 803 16.06q.69-4.69.91-9.45V0h-2.33v2.59c0 20.44-1.75 5.46-14.44 5.46a9.46 9.46 0 00-4.06.42 9.72 9.72 0 00-3.54 2.07 9.85 9.85 0 00-2.36 3.36 9.64 9.64 0 00-.74 4 9.45 9.45 0 001 4 9.57 9.57 0 006.2 5.07 9.57 9.57 0 004.09.18c7.74 0 10.91-5.53 13-5.53s2.85 9.13 2.85 11.55c0 9.52-1.36 8.63-5.7 8.63-11 0-13.16 4.14-16.42 4.14-2.28 0-3.93-2-9.39-2a11 11 0 00-10.71 11 15.11 15.11 0 002.43 7.06 14.89 14.89 0 005.54 5 3.12 3.12 0 012.07 3.27c0 24-.7 26.83-8.48 25.22-4-.8-3.77-.84-4.31-4.94a32.6 32.6 0 00-1.76-8.46C751.65 69 737 77.87 749.68 92c1.9 2.13 5.19 3.06 5.19 5a19.11 19.11 0 01-18.17 12.9c-3.67 0 5.38-6.7 5.38-19.82a24.69 24.69 0 00-22.58-25.32 17.4 17.4 0 00-6.85 1.15 17.37 17.37 0 00-9.81 9.44 17.31 17.31 0 00-1.42 6.81 14.62 14.62 0 004 10.52 14.6 14.6 0 004.7 3.3 14.83 14.83 0 005.61 1.25c5.42 0 9.65-5.17 9.65-1.61a21.33 21.33 0 01-12.28 16.59c-.89 0-1.48-.77-2.13-2.51-4.76-12.37 16.93-10.37-120.31-10.37H232.24c-137.24 0-115.54-2-120.32 10.37-.64 1.69-1.25 2.51-2.12 2.51a21.33 21.33 0 01-12.28-16.59c0-3.56 4.23 1.61 9.66 1.61a14.92 14.92 0 005.61-1.23 14.67 14.67 0 004.69-3.3 14.74 14.74 0 004-10.52 17.57 17.57 0 00-1.41-6.82 17.8 17.8 0 00-4-5.72 17.52 17.52 0 00-5.87-3.71 17.3 17.3 0 00-6.86-1.15 24.69 24.69 0 00-22.5 25.3c0 13.12 9 19.82 5.39 19.82A19.16 19.16 0 0168 97c0-2 3.3-3 5.21-5C85.9 77.87 71.27 69 66 82.2a33.87 33.87 0 00-1.75 8.46c-.48 4.1-.35 4.14-4.3 4.94-7.8 1.61-8.47-1.18-8.47-25.22a3.06 3.06 0 01.44-2 3.16 3.16 0 011.61-1.27 15 15 0 008-12.06A11 11 0 0050.8 44c-5.45 0-7.12 2-9.39 2C38.15 46 36 41.85 25 41.85c-4.34 0-5.69.88-5.69-8.58 0-2.43.67-11.56 2.84-11.56s5.28 5.54 13 5.54a9.73 9.73 0 004.09-.18 9.49 9.49 0 003.66-1.86A9.8 9.8 0 0045.47 22a9.65 9.65 0 00-5.65-13.44 9.74 9.74 0 00-4.08-.42c-12.68 0-14.43 15-14.43-5.46V0h-2.39v6.57a93.75 93.75 0 00.92 9.43c.06 4.83-4.68 8-4.68 18.69 0 10.86 2.41 7.25-7.85 13-2.37 1.26-2.39-2.21-2.39-5V0H.46v23.14c0 30.68-1.52 33.73.92 33.73a104.82 104.82 0 0115.53-8.23c2.07 0 3.41 7.09 10 12.15 4 3.1 2.2 6 2.2 10.4A26.65 26.65 0 0044.93 96c13.41 4.8 5.43 21.75 30.28 31.11a31.55 31.55 0 0032-6.8c4.94-4.88 6.66 1.26 18.72 2.75 8.78 1.06-.13 3.1-.13 13.81 0 18.36 23.37 17.23 23.37 3.16 0-5.5-4.67-6.6-4.67-8.79a22.46 22.46 0 0119.8-9.42c34.51-1.86 459.85-1.88 494.44 0a22.49 22.49 0 0119.81 9.42c0 2.15-4.68 3.26-4.68 8.79 0 14.07 23.38 15.2 23.38-3.16 0-10.66-8.78-12.71-.14-13.81 12.07-1.47 13.79-7.63 18.72-2.75a31.54 31.54 0 0032 6.8c24.78-9.37 16.8-26.37 30.17-31.11a26.66 26.66 0 0015.76-24.76c0-4.37-1.86-7.29 2.18-10.4 6.6-5 7.92-12.15 10-12.15a106.27 106.27 0 0115.53 8.23c2.53-.05.95-3.1.95-33.78zm-28.12-.29a11.06 11.06 0 01-6.67 1.71c-4.35 0-8.68-2.95-8.68-6.82a7.67 7.67 0 018.31-6.85c5 .07 11.41 4.38 11.41 6.64a11 11 0 01-4.37 5.32zm-758.68-12a7.67 7.67 0 018.31 6.85c0 3.87-4.31 6.82-8.66 6.82a11.12 11.12 0 01-11.06-7c0-2.25 6.38-6.6 11.41-6.63zm12 53.43c0 4-13.66.2-13.66-3.92a29.33 29.33 0 013.94-7.49c2.55-3.8 9.69 6.41 9.69 11.45zm-24.47-16c0-1.67 2.2-1.48 4.64-1.73C38.7 49 38.13 47.67 31.94 57.51c-2.22 3.49-8.82-7.62-8.82-9.17zm25.63 45a28.86 28.86 0 01-16.41-25c0-4.69 3.31-.28 13.34.43 4.27.26 3.92.73 3.92 13.75 0 1.26.41 7.91.41 8.89-.04 1.33-.48 2-1.29 2zm.5-33.9a83.28 83.28 0 01-5.32-10.65c0-1.26 3.69-2.52 6.16-2.52a9.18 9.18 0 019 7.53c-.47 8.22-6 10.91-7.15 10.91-1.61.11-1.89-3.46-2.72-5.2zm23.79 18.69a3.14 3.14 0 011.2.28 3.25 3.25 0 011 .74 2.86 2.86 0 01.61 1.07 3 3 0 01.12 1.23A12.94 12.94 0 0173.68 88a12.67 12.67 0 01-5.44 4.36c-4.08-.05-.24-14.29 4.83-14.29zm14.4 48.26a32.91 32.91 0 01-32.77-25.4c0-1.61 6-2.52 9.69-3.31a28 28 0 0023.12 17.28c14.82 0-4.31-5.81-4.31-24.48 0-8.34 5.82-23.28 20.16-23.28a15.11 15.11 0 0111 4.12 15.15 15.15 0 014.75 10.81 10.38 10.38 0 01-.48 4.18 10.21 10.21 0 01-9.65 7c-8.15 0-9-7.13-11.44-7.13S95 93.74 95 93.88c0 13 12.2 19.43 12.2 22.46-.02 2.66-11.31 9.99-19.73 9.99zm598.84-6.87c-.61 0-1.25 1.06-1.25 1.26 0 1.46 9.92 6.22 9.92 15.47a11.21 11.21 0 01-.45 4.35 10.94 10.94 0 01-2.09 3.85 11.43 11.43 0 01-3.39 2.75 11.2 11.2 0 01-4.19 1.23c-9.36 0-12-12.24-3.69-14.31 1.55-.4 3.76.19 3.76-1.35 0-18.45-36.54-14.32-273.57-14.32s-273.56-4.13-273.56 14.32c0 1.54 2.27.95 3.77 1.35 8.27 2.07 5.66 14.31-3.7 14.31a11.18 11.18 0 01-10.12-12.18c0-9.25 9.92-14 9.92-15.47 0-.16-.61-1.16-1.25-1.26-28.09-2.68-24.2-3.76-21.61-11.61.87-2.59-18.07-4.13 288-4.13 319 0 304 1.25 304.93 4.13 2.78 7.81 6.67 8.92-21.43 11.61zm68.39-27.11a12.79 12.79 0 01-7.81-10.92 3 3 0 01.16-1.23 3 3 0 01.62-1.07 3.14 3.14 0 011-.74 3 3 0 011.2-.29c5 0 8.89 14.21 4.79 14.21zm1.61 27.07a33 33 0 01-20.88 6.91c-8.42 0-19.72-7.29-19.72-10 0-3 12.19-9.47 12.19-22.46 0-.15-.28-7.77-2.61-7.77s-3.29 7.13-11.44 7.13a10.25 10.25 0 01-9.65-7 10.61 10.61 0 01-.47-4.19 15.36 15.36 0 011.27-5.9 15.08 15.08 0 018.61-8.14 14.77 14.77 0 016-.94c14.34 0 20.16 14.93 20.16 23.27 0 18.67-19.13 24.48-4.3 24.48a28 28 0 0023.04-17.21c3.63.77 9.67 1.69 9.67 3.3a32.88 32.88 0 01-11.87 18.52zM785 52.91a28.84 28.84 0 014 7.58c0 4.1-13.68 7.85-13.68 3.9-.04-5.11 7.13-15.32 9.68-11.48zM771 64.8a10.79 10.79 0 01-7.15-10.91 9.18 9.18 0 019-7.53c2.51 0 6.16 1.14 6.16 2.51a83.25 83.25 0 01-5.35 10.58c-.82 1.71-1.09 5.35-2.66 5.35zm14.82 18.32a29 29 0 01-11.7 10.19c-.76 0-1.19-.7-1.19-1.93 0-1 .33-7.53.4-8.89h.3c0-13-.65-13.44 3.56-13.75 10-.72 13.35-5.12 13.35-.43a29 29 0 01-4.75 14.81zM791 57.51c-6.19-9.84-6.76-8.48 4.18-10.9 2.43.26 4.64 0 4.64 1.74S793.17 61 791 57.51z"/>
</svg>