<svg fill="#836D40" xmlns="http://www.w3.org/2000/svg" viewBox="0 0 823.18 88.8">
  <path d="M473.92 36c-3.48 0-3.77.52-4.35 3-2.07 8.61-2.59 8.88-3.77 8.88a21.82 21.82 0 01-12.39-16.77c0-4.12 4.08 1.6 10 1.6a14.62 14.62 0 0013.81-15.26A18.1 18.1 0 00459.73 0a24.91 24.91 0 00-22 25.36c0 12.94 9.51 20.38 5.11 20.38a20.91 20.91 0 01-18.44-13.83c0-1.83 4-3.33 6.09-5.9 9.15-11.42.79-18.07-4.71-13.22-6.9 6.07-2.15 16.34-6.52 17.6a26.67 26.67 0 01-15.38 0c-4.36-1.26.39-11.53-6.51-17.6-5.5-4.85-13.82 1.8-4.72 13.22 2.06 2.52 6.1 4.07 6.1 5.9a20.91 20.91 0 01-18.46 13.83c-4.42 0 5.11-7.44 5.11-20.38A24.91 24.91 0 00363.42 0a18.09 18.09 0 00-17.58 17.45 14.63 14.63 0 0013.81 15.27c6 0 10.05-5.73 10.05-1.6a21.89 21.89 0 01-12.4 16.77c-1.18 0-1.69-.27-3.76-8.88-.59-2.46-.87-3-4.35-3C-34.44 36 .94 32.53.8 49.84.76 53.5.65 67 .62 88.77h4.5c.42-29.62.86-46 3.21-46 366.84 0 342.36-6.76 345.49 5 .58 2.19.44 2.64-1.74 3.47-13.27 5-22.6 3-22.6 4.67 0 2 2.63 2.63 4.82 5 9.79 10.94 3.38 23.09-5.64 23.09a7.81 7.81 0 01-8.52-7.7c0-8.45 8.8-5.65 8.8-8.16A22.75 22.75 0 00310.1 56c-17.11-1.25-47.9-.77-145.58.34v-.24c-151.68 2.25-145.22-1.88-145.24 4 0 4.11-.17 13.91-.18 28.63h2.38c.31-18.6.22-28.73 1.84-28.73 289.82 0 283-6.18 296.67 3.6 7.16 5.11-2.2 5-2.2 12.78 0 13.46 23.2 14.11 23.2-4a26.42 26.42 0 00-4.16-12.21c0-2 7.44-.76 15.75-5.3 8.09-4.4 9.2 9.08 28.72 9.08s28.34-18.62 30.27-18.62 10.81 18.53 30.26 18.53 20.62-13.48 28.71-9.08c8.33 4.54 15.75 3.34 15.75 5.3a26.5 26.5 0 00-4.16 12.21c0 18.14 23.2 17.48 23.2 4 0-7.83-9.36-7.67-2.19-12.8 13.67-9.76 7.16-3.63 297-3.63 1.48 0 1.23 10.19 1.56 28.92h2.2c0-14.69-.06-24.45-.07-28.56 0-5.9 6.44-1.78-145.25-4v.25c-97.64-1.15-128.48-1.6-145.58-.39a22.69 22.69 0 00-18.84 12.11c0 2.52 8.79-.28 8.79 8.17a7.84 7.84 0 01-.69 3.13 7.76 7.76 0 01-1.89 2.58 7.57 7.57 0 01-2.76 1.62 7.84 7.84 0 01-3.19.36c-9 0-15.42-12.14-5.63-23 2.19-2.43 4.83-3.06 4.83-5 0-.19-.68-.58-1.08-.63A53 53 0 01471 51.3c-2.18-.83-2.31-1.26-1.73-3.47 3.16-11.82-21.13-5 345.71-5 3.21 0 2.57 16.28 3 45.87h4.48c0-21.77-.08-35.24-.12-38.9-.13-17.27 35.22-13.8-348.42-13.8zm-43.78-22.72a3.16 3.16 0 011.26.18 3.07 3.07 0 011.08.69 2.89 2.89 0 01.7 1.06 2.86 2.86 0 01.2 1.26A11.67 11.67 0 01424.53 28c-1-.48-.74-2.09-.79-3.48-.18-3.84 1.82-11.24 6.4-11.24zM393.37 23.8a11.65 11.65 0 01-2.4-7.33 3 3 0 01.22-1.22 3 3 0 01.69-1.05 3 3 0 011.05-.66 3.1 3.1 0 011.24-.19c4.57 0 6.56 7.4 6.45 11.21 0 1.39.26 3-.81 3.48a11.7 11.7 0 01-6.44-4.24zm61.45 35.36a26.72 26.72 0 01-12 2.57c-21.11 0-28.84-20.27-30.65-20.27s-9.53 20.27-30.65 20.27a26.63 26.63 0 01-21.6-10.27c0-2 16.16-11.05 11.74-27.62v.07A3.83 3.83 0 00369.9 22c-1.68 0-3.33 7.1-11.29 7.1-15 0-13.65-26.64 5.66-26.64a21 21 0 0119.22 18.69 34.43 34.43 0 01-9.06 27.18c0 2.63 16.95 4.47 25.37-11.43 3.49-6.55 3-3.09 12.41-3.09s8.94-3.46 12.41 3.09C433 52.77 450 50.93 450 48.3a34.32 34.32 0 01-9.09-27.24 21 21 0 0119.18-18.7c19.33 0 20.74 26.65 5.67 26.65-8 0-9.67-7.1-11.35-7.1a3.77 3.77 0 00-1.74 1.93c-4.42 16.57 11.73 25.61 11.73 27.62a26.64 26.64 0 01-9.58 7.7z"/>
</svg>
