<svg viewBox="0 0 14 34" fill="#755617" fill-opacity=".3" xmlns="http://www.w3.org/2000/svg">
  <path fill-rule="evenodd" clip-rule="evenodd" d="M7.504 30.241v3.254a.505.505 0 11-1.008 0v-3.2l-.023.045-.035.07c-.88 1.578-2.424 2.28-4.128 1.876-.764-.18-1.42-.667-1.848-1.37A3.159 3.159 0 010 29.28c0-.24.029-.48.087-.714.217-.871.935-1.643 1.785-1.921.71-.232 1.414-.1 1.98.37.745.62.906 1.76.354 2.493-.505.671-1.493.853-2.2.405-.135-.085-.217-.209-.203-.38a.466.466 0 01.242-.388.405.405 0 01.414.023c.21.132.478.155.716.06.233-.092.401-.278.461-.513a.944.944 0 00-.135-.78 1.186 1.186 0 00-.815-.503c-.614-.085-1.027.208-1.266.468-.442.482-.639 1.241-.491 1.888.273 1.193 1.39 1.898 2.655 1.675 1.825-.321 2.689-2.336 2.911-4.134v-2.487H4.594a.505.505 0 010-1.01h1.901V0h1.01v23.834h1.9a.505.505 0 010 1.009h-1.9v2.434c.222 1.798 1.086 3.812 2.91 4.132 1.266.222 2.382-.481 2.656-1.674.148-.647-.05-1.407-.492-1.889-.238-.26-.652-.553-1.266-.467-.33.046-.635.233-.814.502a.946.946 0 00-.136.78c.06.235.228.422.461.514a.795.795 0 00.717-.061.405.405 0 01.413-.023c.14.073.235.225.242.387a.428.428 0 01-.202.382c-.708.447-1.695.265-2.201-.406-.552-.732-.39-1.872.354-2.492.567-.472 1.27-.604 1.981-.371.85.278 1.567 1.05 1.785 1.921a3.107 3.107 0 01-.375 2.35c-.428.703-1.083 1.19-1.847 1.37-1.705.404-3.248-.297-4.128-1.875a1.673 1.673 0 01-.059-.116z" />
</svg>
