<svg viewBox="0 0 71 14" fill="currentColor" xmlns="http://www.w3.org/2000/svg">
  <path fill-rule="evenodd" clip-rule="evenodd" d="M3.759 7.504H.505a.505.505 0 110-1.008h3.2a2.292 2.292 0 00-.045-.023l-.07-.035c-1.578-.88-2.28-2.424-1.876-4.128.18-.764.667-1.42 1.37-1.848C3.584.158 4.154 0 4.719 0c.242 0 .482.029.715.087.871.217 1.643.935 1.921 1.785.232.71.1 1.414-.37 1.98-.62.745-1.76.906-2.493.354-.671-.505-.853-1.493-.405-2.2.085-.135.208-.217.38-.203a.465.465 0 01.388.242.405.405 0 01-.023.414.796.796 0 00-.06.716c.092.233.278.401.513.461a.944.944 0 00.78-.135c.27-.18.457-.485.503-.815.085-.614-.208-1.027-.468-1.266C5.618.978 4.86.781 4.212.93c-1.193.273-1.898 1.39-1.675 2.655.321 1.825 2.336 2.689 4.134 2.911h2.487V4.594a.505.505 0 111.01 0v1.901H71v1.01H10.166v1.9a.505.505 0 01-1.009 0v-1.9H6.723c-1.798.222-3.812 1.086-4.132 2.91-.222 1.266.481 2.382 1.674 2.656.647.148 1.407-.05 1.889-.492.26-.238.553-.652.467-1.266a1.186 1.186 0 00-.502-.814.946.946 0 00-.78-.136.753.753 0 00-.514.461.795.795 0 00.061.717.405.405 0 01.023.413.464.464 0 01-.387.242.428.428 0 01-.382-.202c-.447-.708-.266-1.695.406-2.201.732-.552 1.872-.39 2.492.354.472.567.604 1.27.371 1.981-.278.85-1.05 1.567-1.921 1.785a3.107 3.107 0 01-2.35-.375c-.703-.428-1.19-1.083-1.37-1.847-.404-1.705.297-3.248 1.875-4.128l.066-.034.05-.025z"/>
</svg>