<svg fill="#755617" viewBox="0 0 19 12" xmlns="http://www.w3.org/2000/svg">
  <path d="M10.184 7.075v4.264A.674.674 0 019.5 12a.673.673 0 01-.684-.663V7.145l-.03.06a1.915 1.915 0 01-.05.091c-1.194 2.068-3.288 2.987-5.602 2.459A4.01 4.01 0 01.628 7.96 4.033 4.033 0 010 5.816c0-.316.039-.63.118-.936.295-1.142 1.269-2.153 2.422-2.518.965-.304 1.92-.131 2.689.487 1.01.81 1.229 2.305.48 3.265-.687.88-2.027 1.118-2.986.531-.184-.112-.296-.273-.276-.5a.608.608 0 01.328-.507.566.566 0 01.562.03c.285.174.649.204.972.08a1 1 0 00.626-.673 1.203 1.203 0 00-.184-1.023 1.618 1.618 0 00-1.105-.657c-.834-.112-1.394.271-1.719.612-.6.632-.867 1.627-.667 2.474.37 1.563 1.886 2.486 3.604 2.195 2.477-.42 3.649-3.061 3.95-5.417V0l1.37.001v3.19c.303 2.355 1.475 4.994 3.951 5.414 1.718.291 3.233-.63 3.604-2.194.2-.847-.067-1.843-.667-2.474-.324-.341-.885-.725-1.72-.613-.447.06-.86.306-1.104.658a1.205 1.205 0 00-.184 1.023 1 1 0 00.626.673c.324.124.688.094.972-.08a.566.566 0 01.562-.03c.19.096.318.295.328.507a.557.557 0 01-.275.5c-.96.586-2.3.348-2.987-.531-.748-.96-.529-2.454.48-3.266.77-.618 1.725-.79 2.69-.486 1.153.364 2.127 1.376 2.422 2.518.265 1.024.079 2.146-.51 3.079a4.013 4.013 0 01-2.506 1.795c-2.314.529-4.407-.39-5.602-2.457a2.148 2.148 0 01-.046-.088l-.034-.064z" />
</svg>
