<svg viewBox="0 0 125 119" fill="#F2EFE9" xmlns="http://www.w3.org/2000/svg">
  <path fill-rule="evenodd" clip-rule="evenodd" d="M86.124 4.369c-6.567 7.645-15.87 33.31-29.005 25.119 9.85 1.092 15.323-7.645 19.702-17.474 0 0-15.871 1.092-20.25 16.382 2.19-18.02 18.06-18.567 29.553-24.027z"/>
  <path fill-rule="evenodd" clip-rule="evenodd" d="M117.866 30.58c12.041-24.027-48.16-37.133-47.613 21.297-1.094-17.475 24.628-55.153 39.952-25.12C88.861-.546 69.159 43.14 71.348 59.522c1.094-14.744 8.756-31.126 15.87-18.02-10.397-7.646-13.681 24.026-14.228 30.033C56.57 30.58 86.672-8.19 117.866 15.29c3.831 3.823 6.568 8.737 7.115 13.652.547 10.921-10.946 6.553-7.115 1.638zM52.74 8.191c-6.567 7.645-8.209 14.198-7.661 18.02C43.437 13.651 50.55 3.276 42.889 0c.548 1.638 1.642 2.184-1.641 7.645-4.378 8.737-4.378 14.744-1.642 19.112-1.095-1.638-2.19-2.73-5.473-2.184-1.642 0-2.736-.546-2.736-.546 2.736 4.369 9.303 7.645 13.134 6.553-2.189 0-5.472 0-10.398-4.915 3.284 1.639 7.115 4.369 10.398 4.915-9.85-8.737-1.094-22.935 0-25.665-2.736 10.375-4.378 16.928 1.095 24.573-.547-2.184-1.095-7.1 7.662-20.75-2.737 7.644-7.662 13.105-7.662 21.296 2.736-5.46 6.02-7.645 10.946-10.375-3.832 2.184-7.662 6.006-10.946 11.467 7.662 1.092 11.493-8.737 14.23-14.744-1.095 1.638-1.643 1.638-3.285 1.638-6.567 1.639-8.756 6.553-9.85 9.83 3.283-10.376 11.492-14.744 7.661-22.935.548 1.092-.547 1.638-1.642 3.276zM.156 74.765c9.304-4.914 36.12-7.099 31.742-21.297-1.094 9.284-10.945 12.014-21.89 14.198 0 0 4.925-15.29 21.343-15.836C12.744 49.1 8.366 64.936.156 74.765z" />
  <path fill-rule="evenodd" clip-rule="evenodd" d="M17.122 111.898c-26.27 5.46-23.533-56.245 33.384-40.956-16.966-4.914-59.653 9.83-35.026 32.765-20.796-27.85 26.817-35.495 42.14-28.942-14.776-3.276-32.289.546-21.89 10.375-4.379-12.013 26.816-7.099 32.836-6.007-35.573-26.757-80.45-7.644-65.673 28.396 2.189 4.915 6.02 8.737 11.492 10.921 9.851 3.277 8.21-9.283 2.737-6.552zM12.196 43.093c9.851-3.823 15.871-3.823 19.702-2.73-11.492-4.915-23.533 0-25.174-8.738 1.641 1.092 2.189 2.184 8.209.546 9.303-2.184 15.323-.546 19.154 3.277-1.094-1.639-2.189-3.277-1.094-6.007.547-1.638 0-2.184 0-2.184 3.83 3.276 5.473 10.375 3.284 13.651.547-2.184 1.094-5.46-1.642-10.921.547 3.276 1.642 7.645 1.642 10.921-6.02-11.467-21.892-6.553-24.628-6.553 10.398 0 17.513.547 23.533 7.646-2.19-1.093-6.567-3.277-21.891 2.184 7.662-1.092 14.23-4.369 22.438-2.184-6.567 1.092-9.303 3.822-13.134 8.19 2.736-3.276 8.209-6.006 13.682-8.19-.548 8.19-11.493 9.283-18.06 10.375 2.189-.546 2.189-1.638 2.736-2.73 3.284-6.007 8.756-7.1 12.04-7.645-10.946 1.092-16.966 7.645-24.628 2.184 1.642.546 2.737-.546 3.831-1.092z" />
</svg>
