<svg viewBox="0 0 71 20" fill="currentColor" xmlns="http://www.w3.org/2000/svg">
  <path d="M28.45 16.59a6.202 6.202 0 01-2.277 1.652 6.255 6.255 0 01-2.78.483c-4.872 0-6.21-3.447-6.547-3.447-.462 0-4.774 3.588-9.719 3.588C3.833 18.866 0 17.22 0 13.18a6.399 6.399 0 011.923-4.223 6.515 6.515 0 014.29-1.844 6.835 6.835 0 014.088 1.476c.142 0 2.173-2.88 5.222-2.88a3.845 3.845 0 012.764 1.212 6.363 6.363 0 012.96-.936h.326a4.343 4.343 0 013.079 1.354 4.233 4.233 0 011.154 3.134c0 .316-.052.527.175.527.188 0 .331.015.331.121 0 .14-.245.141-.26.141-.148 0-.299-.032-.38.206-.804 2.313-2.502 3.464-2.502 3.128 0-.12.122-.152.207-.212a4.74 4.74 0 001.86-2.917c0-.103-.061-.15-.195-.15a12.838 12.838 0 00-3.862 1.287 24.423 24.423 0 00-3.958 2.479 7.336 7.336 0 002.813 2.414 7.414 7.414 0 003.645.74 6.847 6.847 0 004.644-1.69c.048.002.093.02.13.05l-.005-.007zM15.477 6.265h-.144a6.017 6.017 0 00-2.689.694 5.955 5.955 0 00-2.08 1.823c0 .258.947 1.192.947 2.425 0 1.907-2.093 2.039-2.093.048.045-.82.284-1.617.697-2.329 0-.308-1.676-1.278-3.498-1.278C3.568 7.646.24 9.984.24 13.385c0 2.616 2.467 5.233 6.664 5.233 3.708 0 7.265-2.53 9.445-4.057a.243.243 0 00.104-.322c-.53-1.454-.027-1.171-1.557-.555a9.465 9.465 0 01-.873.282c-.01 0-.104-.032-.104-.08 0-.231.856-.253 1.905-.866.324-.189.122-.386.122-1.225 0-2.995 1.934-4.28 1.934-4.569a2.826 2.826 0 00-2.402-.961zm9.866 4.172c0-1.28-.727-4.247-3.97-4.247-1.402 0-2.932.782-2.932 1.04.207.492.318 1.018.327 1.55 0 2.888-2.527 3.948-2.424 4.319.344 1.252.38 1.13.43 1.13.221 0 1.158-.802 3.973-2.086 4.178-1.906 4.596-.456 4.596-1.707zm-9.194 1.388c.072.593.067.784.187.784a4.933 4.933 0 001.52-1.568 4.88 4.88 0 00.688-2.065c0-.448-.24-1.44-.46-1.44a5.396 5.396 0 00-1.463 1.925 5.348 5.348 0 00-.471 2.364zm-4.89-.582a3.185 3.185 0 00-.892-2.14 3.099 3.099 0 00-.743 2.105c0 1.487 1.464 1.823 1.635.037v-.002zm30.48 5.198c.312-.038 1.384 1.626 4.597 1.626 4.298 0 6.545-2.909 6.545-3.257 0-.14-5.357-3.619-7.85-3.619-.111 0-.158.052-.158.165 0 1.85 2.423 3.155 1.98 3.155a1.073 1.073 0 01-.243-.116c-2.416-1.8-1.806-3.214-2.364-3.214-.164 0-.398.032-.398-.13 0-.19.494.019.498-.308 0-.227.018-.787.018-.843a4.301 4.301 0 011.336-2.917 4.38 4.38 0 012.995-1.203 6.66 6.66 0 013.127.934A3.797 3.797 0 0154.56 5.46c3.17 0 4.86 2.755 5.15 2.755a6.845 6.845 0 014.075-1.499 6.212 6.212 0 012.455.48A6.163 6.163 0 0168.3 8.6a6.096 6.096 0 011.327 2.102c.292.783.42 1.617.373 2.451 0 .162-.324 1.357-.392 1.59-.289.99-2.468 3.675-6.81 3.675-4.65 0-9.402-3.447-9.55-3.447-.322 0-1.75 3.573-6.701 3.573-3.098 0-4.798-1.816-4.798-2.1v-.009l-.009.005zm21.2 1.733c6.488-.375 6.776-4.828 6.776-5.325a6.968 6.968 0 00-.145-1.365 7.504 7.504 0 00-.885-1.608c-.478-1.036-2.654-2.63-5.3-2.63a4.778 4.778 0 00-3.528 1.281c.44.697.694 1.494.739 2.315.049.331-.028.669-.217.947a1.361 1.361 0 01-.802.558.104.104 0 01-.074 0c-.375-.153-1.009-.303-1.009-1.577.12-.837.456-1.628.976-2.298a5.671 5.671 0 00-2.04-1.837 5.732 5.732 0 00-2.672-.671 3.11 3.11 0 00-2.573 1.01c0 .321 1.931 1.63 1.931 4.5 0 .983-.22 1.11.097 1.265.316.154.608.308.924.436.503.205.976.227.976.351 0 0 0 .103-.09.103a11.972 11.972 0 01-1.977-.72c-.068 0-.104.05-.142.164a5.68 5.68 0 00-.336 1.05c0 .225 5.583 4.17 9.371 4.05zM48.504 6.04a4.091 4.091 0 00-2.745 1.37 4.017 4.017 0 00-1 2.88c0 .59.026.605.312.632 4.473.411 7.82 3.05 8.227 3.05.065 0 .104-.043.144-.141.04-.099.328-.968.328-1.029 0-.26-2.44-1.593-2.44-4.18.02-.559.134-1.11.337-1.631a4.28 4.28 0 00-3.163-.951zm5.412 5.44c-.18-3.019-1.868-4.197-1.921-4.197-.267 0-.445 1.04-.445 1.476.07.728.302 1.431.677 2.06a4.998 4.998 0 001.497 1.58c.157 0 .142-.186.192-.919zm6.42-1.302c-.035-.188-.486-1.383-.667-1.383-.265 0-.916 1.082-.916 2.03 0 .215.103 1.262.756 1.262.806-.004.97-1.13.826-1.909zm-16.527-.205C43.809 5.079 40.581 0 34.756 0c-4.152 0-8.447 4.563-8.447 10.049.05 2.342.795 4.617 2.141 6.542.126.122 2.683 3.409 6.54 3.409 4.008 0 6.448-3.218 6.756-3.564l-.006.005a11.267 11.267 0 002.069-6.467zm-8.75 9.696c-4.381 0-7.933-4.329-7.933-9.665 0-5.337 3.552-9.666 7.933-9.666 4.38 0 7.933 4.33 7.933 9.666s-3.552 9.664-7.933 9.664z" />
</svg>