<svg width="12" viewBox="0 0 10 16" fill="currentColor" xmlns="http://www.w3.org/2000/svg">
<path d="M4.1042 8.57618L0.551139 8.57618C0.247343 8.57618 1.45434e-06 8.31787 1.39875e-06 7.9999C1.34315e-06 7.68193 0.247342 7.42362 0.552214 7.42418L4.0456 7.42418C4.02935 7.41535 4.01269 7.40677 3.99601 7.39819L3.99597 7.39817C3.97015 7.38488 3.94427 7.37156 3.91978 7.35721C2.19648 6.35096 1.4308 4.58777 1.87117 2.63943C2.0685 1.76656 2.59974 1.01694 3.36702 0.528449C3.91278 0.180652 4.53596 -7.93093e-07 5.15323 -9.0102e-07C5.4167 -9.47087e-07 5.67857 0.0326394 5.93343 0.0990472C6.88461 0.347795 7.72771 1.16777 8.0315 2.13912C8.28476 2.95121 8.14119 3.75542 7.62608 4.40318C6.95074 5.25354 5.70491 5.43813 4.90483 4.80726C4.17195 4.22928 3.97301 3.10091 4.46231 2.29276C4.55587 2.138 4.69028 2.04401 4.87847 2.0609C5.05537 2.06877 5.22153 2.17739 5.30165 2.33722C5.37692 2.48748 5.36778 2.66025 5.27637 2.81052C5.13173 3.05026 5.10646 3.35642 5.2097 3.6288C5.31079 3.89443 5.51457 4.0869 5.77051 4.15556C6.14743 4.25854 6.44209 4.12742 6.62329 4.0008C6.91633 3.79538 7.12173 3.44702 7.1712 3.06996C7.26422 2.36818 6.94483 1.896 6.66093 1.62305C6.13399 1.11768 5.30541 0.892568 4.59888 1.0614C3.29659 1.37318 2.52716 2.64957 2.77019 4.09591C3.12077 6.18156 5.321 7.16867 7.28411 7.42305L10 7.42305L9.99892 8.57618L7.34057 8.57618C5.37799 8.83112 3.17884 9.81824 2.8288 11.9033C2.5863 13.3497 3.35466 14.6255 4.65749 14.9378C5.36348 15.1072 6.19314 14.8816 6.71954 14.3762C7.00344 14.1038 7.32336 13.6311 7.22981 12.9287C7.1798 12.5516 6.97494 12.2039 6.6819 11.9984C6.5007 11.8712 6.20604 11.7412 5.82912 11.8431C5.57318 11.9123 5.36886 12.1042 5.26831 12.3704C5.16507 12.6434 5.19034 12.9495 5.33552 13.1893C5.42639 13.339 5.43553 13.5118 5.36025 13.662C5.28014 13.8224 5.11453 13.9305 4.93763 13.9383C4.76234 13.94 4.61502 13.8618 4.52092 13.707C4.03216 12.8983 4.23057 11.77 4.96344 11.192C5.76299 10.5617 7.00828 10.7463 7.68469 11.5961C8.1998 12.2444 8.3439 13.0486 8.09011 13.8607C7.78632 14.832 6.94322 15.652 5.99204 15.9007C5.13819 16.1236 4.20368 15.9671 3.42617 15.4719C2.65889 14.9834 2.12765 14.2338 1.92978 13.3609C1.48941 11.4126 2.25508 9.64941 3.97784 8.64372C4.00142 8.63009 4.02588 8.61739 4.05041 8.60465C4.06842 8.59531 4.08645 8.58595 4.1042 8.57618Z" fill="#B8AB92"/>
</svg>
