<svg viewBox="0 0 72 75" fill="#A9956D" fill-opacity=".5" xmlns="http://www.w3.org/2000/svg">
  <path fill-rule="evenodd" clip-rule="evenodd" d="M68.93 51.675c-4.596-3.94-20.03-9.523-15.104-17.404-.657 5.91 4.597 9.194 10.508 11.821 0 0-.657-9.522-9.851-12.15C65.319 35.257 65.647 44.78 68.93 51.676z" />
  <path fill-rule="evenodd" clip-rule="evenodd" d="M53.17 70.72c14.447 7.224 22.328-28.896-12.807-28.568 10.508-.657 33.165 14.776 15.105 23.97 16.418-12.806-9.851-24.627-19.702-23.313 8.866.656 18.717 5.254 10.836 9.522 4.597-6.239-14.448-8.209-18.06-8.537 24.627-9.851 47.941 8.209 33.822 26.926-2.299 2.298-5.254 3.94-8.21 4.269-6.567.328-3.94-6.568-.985-4.27zM66.632 31.644c-4.597-3.94-8.537-4.925-10.836-4.597 7.553-.985 13.792 3.284 15.762-1.313-.985.328-1.314.985-4.597-.985-5.254-2.627-8.866-2.627-11.493-.985.985-.657 1.642-1.314 1.313-3.284 0-.985.329-1.642.329-1.642-2.627 1.642-4.597 5.582-3.94 7.88 0-1.313 0-3.283 2.955-6.238-.986 1.97-2.627 4.269-2.956 6.239 5.254-5.91 13.792-.657 15.434 0-6.24-1.642-10.18-2.627-14.777.656 1.313-.328 4.269-.656 12.478 4.598-4.597-1.642-7.88-4.598-12.806-4.598 3.283 1.642 4.597 3.613 6.239 6.568-1.314-2.299-3.612-4.597-6.896-6.567-.657 4.597 5.254 6.895 8.866 8.537-.985-.657-.985-.985-.985-1.97-.985-3.94-3.94-5.254-5.91-5.91 6.238 1.97 8.865 6.895 13.79 4.596-.656.329-.985-.328-1.97-.985zM26.6.094c2.955 5.582 4.268 21.672 12.806 19.045-5.582-.657-7.224-6.567-8.538-13.135 0 0 9.195 2.956 9.523 12.807C42.033 7.646 32.51 5.019 26.6.094z" />
  <path fill-rule="evenodd" clip-rule="evenodd" d="M4.27 10.273C.988-5.488 38.094-3.847 28.899 30.303c2.956-10.179-5.91-35.791-19.702-21.015C25.943-3.19 30.54 25.378 26.6 34.572c1.97-8.866-.329-19.373-6.24-13.135 7.225-2.626 4.27 16.09 3.613 19.702C40.063 19.796 28.57-7.13 6.898 1.736 3.942 3.049 1.644 5.348.33 8.63c-1.97 5.91 5.583 4.926 3.94 1.642zM45.645 7.318c2.299 5.91 2.299 9.522 1.642 11.821 2.955-6.896 0-14.12 5.254-15.105-.657.985-1.314 1.314-.329 4.926 1.314 5.582.329 9.194-1.97 11.492.985-.656 1.97-1.313 3.612-.656.985.328 1.314 0 1.314 0-1.97 2.298-6.24 3.283-8.21 1.97 1.314.328 3.284.657 6.568-.985-1.97.328-4.597.985-6.567.985 6.895-3.612 3.94-13.135 3.94-14.777 0 6.24-.328 10.508-4.597 14.12.657-1.313 1.97-3.94-1.314-13.134.657 4.597 2.627 8.537 1.314 13.463-.657-3.94-2.299-5.583-4.926-7.881 1.97 1.642 3.612 4.925 4.926 8.209-4.926-.328-5.582-6.896-6.24-10.836.33 1.313.986 1.313 1.643 1.642 3.612 1.97 4.269 5.254 4.597 7.224-.657-6.568-4.597-10.18-1.314-14.777-.328.985.329 1.642.657 2.299z" />
</svg>