<svg fill="none" stroke="#C0A876" stroke-linecap="round" stroke-miterlimit="10" stroke-width="80" xmlns="http://www.w3.org/2000/svg" viewBox="0 0 3609 1464.02">
  <path d="M478.11,230.17a57.52,57.52,0,0,0-4.09,6.52c-14.7,27.26-18.33,59.07-11.48,89C472.92,371,506,407.26,551,419.47c44.69,12.12,95,3.22,132.26-24.47,73.11-54.34,78.37-153.68,36.53-228.62C684.37,103,614.05,54.2,539.11,43a251.14,251.14,0,0,0-60.41-2c-58,5.5-110.35,29.14-152.57,64.57-58.9,49.42-94.67,122-97,198.93-1.28,41.45,4.53,83.06,18.44,122.19,13.19,37.11,33.43,71.41,58.59,101.65,26.07,31.33,57.15,58.27,90.72,81.29,40.76,27.95,85.37,49.77,131.07,68.47a908.62,908.62,0,0,0,151.7,47.1c20.4,4.42,40.7,5.13,61.36,6.83-20.66,1.71-40.9,2.41-61.3,6.83A909.16,909.16,0,0,0,528,785.94c-45.7,18.7-90.32,40.52-131.08,68.47-33.56,23-64.64,50-90.71,81.3-25.16,30.23-45.41,64.53-58.6,101.64-13.9,39.13-19.71,80.74-18.44,122.19,2.37,77,38.13,149.51,97,198.93,42.23,35.43,94.6,59.07,152.57,64.57a251.14,251.14,0,0,0,60.41-2c75-11.19,145.27-59.93,180.69-123.37,41.85-74.94,36.58-174.28-36.52-228.62-37.26-27.69-87.58-36.59-132.27-24.47-45,12.21-78.09,48.45-88.46,93.78-6.85,29.93-3.23,61.74,11.48,89a54,54,0,0,0,4.09,6.52" />
  <line x1="40" y1="732" x2="3569" y2="732" />
  <line x1="1022.94" y1="985.81" x2="1022.94" y2="478.2" />
</svg>
