<svg viewBox="0 0 62 9" fill="currentColor" xmlns="http://www.w3.org/2000/svg">
  <path d="M36.3 8.416c6.858-.19 15.455-6.245 21.433-6.41a6.228 6.228 0 013.14.648c.567.3.867.363.867.467a.05.05 0 01-.049.048 10.364 10.364 0 00-3.788-.727c-6.178.17-11.272 6.058-20.293 6.306a14.771 14.771 0 01-6.619-1.2 14.43 14.43 0 01-6.205 1.345C15.546 9.148 9.93 2.38 3.231 2.565a8.067 8.067 0 00-3.123.814.112.112 0 01-.108-.1 6.645 6.645 0 013.93-1.272c6.263-.174 13.52 6.607 22.043 6.372a9.169 9.169 0 004.51-1.143s-2.663-1.493-2.729-3.883a3.227 3.227 0 016.178-1.422c.172.39.264.811.271 1.238.064 2.329-2.709 4.056-2.709 4.056a10.4 10.4 0 004.805 1.19zm-2.44-5.3A2.978 2.978 0 0030.895.34a2.927 2.927 0 00-2.78 2.974c.06 2.13 2.87 3.658 2.87 3.658s2.934-1.637 2.873-3.856z" />
</svg>