<?xml version="1.0" encoding="utf-8"?>
<svg xmlns="http://www.w3.org/2000/svg"  xmlns:xlink="http://www.w3.org/1999/xlink">
<symbol fill="currentColor" id="frame-border" viewBox="0 0 821.98 123.47">
  <path d="M18.47 0v123.47h2.38V0zM4.5 0H0v123.47h4.49c0-31.06 0-73.03.01-123.47zm813.01 123.47H822c0-25 0-67.64-.06-123.47h-4.5c.03 50.43.06 92.41.07 123.47zM801.09 0c0 61.19.06 104.57.06 123.47h2.33c0-16.17 0-59.91-.09-123.47z"/>
</symbol>

<symbol fill="currentColor" id="frame-bottom" viewBox="0 0 822.91 150.61">
  <path d="M822.42 23.14V0h-4.47v42.71c0 2.76 0 6.28-2.38 5-10.24-5.72-7.84-2.1-7.84-13S803 20.9 803 16.06q.69-4.69.91-9.45V0h-2.33v2.59c0 20.44-1.75 5.46-14.44 5.46a9.46 9.46 0 00-4.06.42 9.72 9.72 0 00-3.54 2.07 9.85 9.85 0 00-2.36 3.36 9.64 9.64 0 00-.74 4 9.45 9.45 0 001 4 9.57 9.57 0 006.2 5.07 9.57 9.57 0 004.09.18c7.74 0 10.91-5.53 13-5.53s2.85 9.13 2.85 11.55c0 9.52-1.36 8.63-5.7 8.63-11 0-13.16 4.14-16.42 4.14-2.28 0-3.93-2-9.39-2a11 11 0 00-10.71 11 15.11 15.11 0 002.43 7.06 14.89 14.89 0 005.54 5 3.12 3.12 0 012.07 3.27c0 24-.7 26.83-8.48 25.22-4-.8-3.77-.84-4.31-4.94a32.6 32.6 0 00-1.76-8.46C751.65 69 737 77.87 749.68 92c1.9 2.13 5.19 3.06 5.19 5a19.11 19.11 0 01-18.17 12.9c-3.67 0 5.38-6.7 5.38-19.82a24.69 24.69 0 00-22.58-25.32 17.4 17.4 0 00-6.85 1.15 17.37 17.37 0 00-9.81 9.44 17.31 17.31 0 00-1.42 6.81 14.62 14.62 0 004 10.52 14.6 14.6 0 004.7 3.3 14.83 14.83 0 005.61 1.25c5.42 0 9.65-5.17 9.65-1.61a21.33 21.33 0 01-12.28 16.59c-.89 0-1.48-.77-2.13-2.51-4.76-12.37 16.93-10.37-120.31-10.37H232.24c-137.24 0-115.54-2-120.32 10.37-.64 1.69-1.25 2.51-2.12 2.51a21.33 21.33 0 01-12.28-16.59c0-3.56 4.23 1.61 9.66 1.61a14.92 14.92 0 005.61-1.23 14.67 14.67 0 004.69-3.3 14.74 14.74 0 004-10.52 17.57 17.57 0 00-1.41-6.82 17.8 17.8 0 00-4-5.72 17.52 17.52 0 00-5.87-3.71 17.3 17.3 0 00-6.86-1.15 24.69 24.69 0 00-22.5 25.3c0 13.12 9 19.82 5.39 19.82A19.16 19.16 0 0168 97c0-2 3.3-3 5.21-5C85.9 77.87 71.27 69 66 82.2a33.87 33.87 0 00-1.75 8.46c-.48 4.1-.35 4.14-4.3 4.94-7.8 1.61-8.47-1.18-8.47-25.22a3.06 3.06 0 01.44-2 3.16 3.16 0 011.61-1.27 15 15 0 008-12.06A11 11 0 0050.8 44c-5.45 0-7.12 2-9.39 2C38.15 46 36 41.85 25 41.85c-4.34 0-5.69.88-5.69-8.58 0-2.43.67-11.56 2.84-11.56s5.28 5.54 13 5.54a9.73 9.73 0 004.09-.18 9.49 9.49 0 003.66-1.86A9.8 9.8 0 0045.47 22a9.65 9.65 0 00-5.65-13.44 9.74 9.74 0 00-4.08-.42c-12.68 0-14.43 15-14.43-5.46V0h-2.39v6.57a93.75 93.75 0 00.92 9.43c.06 4.83-4.68 8-4.68 18.69 0 10.86 2.41 7.25-7.85 13-2.37 1.26-2.39-2.21-2.39-5V0H.46v23.14c0 30.68-1.52 33.73.92 33.73a104.82 104.82 0 0115.53-8.23c2.07 0 3.41 7.09 10 12.15 4 3.1 2.2 6 2.2 10.4A26.65 26.65 0 0044.93 96c13.41 4.8 5.43 21.75 30.28 31.11a31.55 31.55 0 0032-6.8c4.94-4.88 6.66 1.26 18.72 2.75 8.78 1.06-.13 3.1-.13 13.81 0 18.36 23.37 17.23 23.37 3.16 0-5.5-4.67-6.6-4.67-8.79a22.46 22.46 0 0119.8-9.42c34.51-1.86 459.85-1.88 494.44 0a22.49 22.49 0 0119.81 9.42c0 2.15-4.68 3.26-4.68 8.79 0 14.07 23.38 15.2 23.38-3.16 0-10.66-8.78-12.71-.14-13.81 12.07-1.47 13.79-7.63 18.72-2.75a31.54 31.54 0 0032 6.8c24.78-9.37 16.8-26.37 30.17-31.11a26.66 26.66 0 0015.76-24.76c0-4.37-1.86-7.29 2.18-10.4 6.6-5 7.92-12.15 10-12.15a106.27 106.27 0 0115.53 8.23c2.53-.05.95-3.1.95-33.78zm-28.12-.29a11.06 11.06 0 01-6.67 1.71c-4.35 0-8.68-2.95-8.68-6.82a7.67 7.67 0 018.31-6.85c5 .07 11.41 4.38 11.41 6.64a11 11 0 01-4.37 5.32zm-758.68-12a7.67 7.67 0 018.31 6.85c0 3.87-4.31 6.82-8.66 6.82a11.12 11.12 0 01-11.06-7c0-2.25 6.38-6.6 11.41-6.63zm12 53.43c0 4-13.66.2-13.66-3.92a29.33 29.33 0 013.94-7.49c2.55-3.8 9.69 6.41 9.69 11.45zm-24.47-16c0-1.67 2.2-1.48 4.64-1.73C38.7 49 38.13 47.67 31.94 57.51c-2.22 3.49-8.82-7.62-8.82-9.17zm25.63 45a28.86 28.86 0 01-16.41-25c0-4.69 3.31-.28 13.34.43 4.27.26 3.92.73 3.92 13.75 0 1.26.41 7.91.41 8.89-.04 1.33-.48 2-1.29 2zm.5-33.9a83.28 83.28 0 01-5.32-10.65c0-1.26 3.69-2.52 6.16-2.52a9.18 9.18 0 019 7.53c-.47 8.22-6 10.91-7.15 10.91-1.61.11-1.89-3.46-2.72-5.2zm23.79 18.69a3.14 3.14 0 011.2.28 3.25 3.25 0 011 .74 2.86 2.86 0 01.61 1.07 3 3 0 01.12 1.23A12.94 12.94 0 0173.68 88a12.67 12.67 0 01-5.44 4.36c-4.08-.05-.24-14.29 4.83-14.29zm14.4 48.26a32.91 32.91 0 01-32.77-25.4c0-1.61 6-2.52 9.69-3.31a28 28 0 0023.12 17.28c14.82 0-4.31-5.81-4.31-24.48 0-8.34 5.82-23.28 20.16-23.28a15.11 15.11 0 0111 4.12 15.15 15.15 0 014.75 10.81 10.38 10.38 0 01-.48 4.18 10.21 10.21 0 01-9.65 7c-8.15 0-9-7.13-11.44-7.13S95 93.74 95 93.88c0 13 12.2 19.43 12.2 22.46-.02 2.66-11.31 9.99-19.73 9.99zm598.84-6.87c-.61 0-1.25 1.06-1.25 1.26 0 1.46 9.92 6.22 9.92 15.47a11.21 11.21 0 01-.45 4.35 10.94 10.94 0 01-2.09 3.85 11.43 11.43 0 01-3.39 2.75 11.2 11.2 0 01-4.19 1.23c-9.36 0-12-12.24-3.69-14.31 1.55-.4 3.76.19 3.76-1.35 0-18.45-36.54-14.32-273.57-14.32s-273.56-4.13-273.56 14.32c0 1.54 2.27.95 3.77 1.35 8.27 2.07 5.66 14.31-3.7 14.31a11.18 11.18 0 01-10.12-12.18c0-9.25 9.92-14 9.92-15.47 0-.16-.61-1.16-1.25-1.26-28.09-2.68-24.2-3.76-21.61-11.61.87-2.59-18.07-4.13 288-4.13 319 0 304 1.25 304.93 4.13 2.78 7.81 6.67 8.92-21.43 11.61zm68.39-27.11a12.79 12.79 0 01-7.81-10.92 3 3 0 01.16-1.23 3 3 0 01.62-1.07 3.14 3.14 0 011-.74 3 3 0 011.2-.29c5 0 8.89 14.21 4.79 14.21zm1.61 27.07a33 33 0 01-20.88 6.91c-8.42 0-19.72-7.29-19.72-10 0-3 12.19-9.47 12.19-22.46 0-.15-.28-7.77-2.61-7.77s-3.29 7.13-11.44 7.13a10.25 10.25 0 01-9.65-7 10.61 10.61 0 01-.47-4.19 15.36 15.36 0 011.27-5.9 15.08 15.08 0 018.61-8.14 14.77 14.77 0 016-.94c14.34 0 20.16 14.93 20.16 23.27 0 18.67-19.13 24.48-4.3 24.48a28 28 0 0023.04-17.21c3.63.77 9.67 1.69 9.67 3.3a32.88 32.88 0 01-11.87 18.52zM785 52.91a28.84 28.84 0 014 7.58c0 4.1-13.68 7.85-13.68 3.9-.04-5.11 7.13-15.32 9.68-11.48zM771 64.8a10.79 10.79 0 01-7.15-10.91 9.18 9.18 0 019-7.53c2.51 0 6.16 1.14 6.16 2.51a83.25 83.25 0 01-5.35 10.58c-.82 1.71-1.09 5.35-2.66 5.35zm14.82 18.32a29 29 0 01-11.7 10.19c-.76 0-1.19-.7-1.19-1.93 0-1 .33-7.53.4-8.89h.3c0-13-.65-13.44 3.56-13.75 10-.72 13.35-5.12 13.35-.43a29 29 0 01-4.75 14.81zM791 57.51c-6.19-9.84-6.76-8.48 4.18-10.9 2.43.26 4.64 0 4.64 1.74S793.17 61 791 57.51z"/>
</symbol>

<symbol fill="currentColor" id="frame-top" viewBox="0 0 823.18 88.8">
  <path d="M473.92 36c-3.48 0-3.77.52-4.35 3-2.07 8.61-2.59 8.88-3.77 8.88a21.82 21.82 0 01-12.39-16.77c0-4.12 4.08 1.6 10 1.6a14.62 14.62 0 0013.81-15.26A18.1 18.1 0 00459.73 0a24.91 24.91 0 00-22 25.36c0 12.94 9.51 20.38 5.11 20.38a20.91 20.91 0 01-18.44-13.83c0-1.83 4-3.33 6.09-5.9 9.15-11.42.79-18.07-4.71-13.22-6.9 6.07-2.15 16.34-6.52 17.6a26.67 26.67 0 01-15.38 0c-4.36-1.26.39-11.53-6.51-17.6-5.5-4.85-13.82 1.8-4.72 13.22 2.06 2.52 6.1 4.07 6.1 5.9a20.91 20.91 0 01-18.46 13.83c-4.42 0 5.11-7.44 5.11-20.38A24.91 24.91 0 00363.42 0a18.09 18.09 0 00-17.58 17.45 14.63 14.63 0 0013.81 15.27c6 0 10.05-5.73 10.05-1.6a21.89 21.89 0 01-12.4 16.77c-1.18 0-1.69-.27-3.76-8.88-.59-2.46-.87-3-4.35-3C-34.44 36 .94 32.53.8 49.84.76 53.5.65 67 .62 88.77h4.5c.42-29.62.86-46 3.21-46 366.84 0 342.36-6.76 345.49 5 .58 2.19.44 2.64-1.74 3.47-13.27 5-22.6 3-22.6 4.67 0 2 2.63 2.63 4.82 5 9.79 10.94 3.38 23.09-5.64 23.09a7.81 7.81 0 01-8.52-7.7c0-8.45 8.8-5.65 8.8-8.16A22.75 22.75 0 00310.1 56c-17.11-1.25-47.9-.77-145.58.34v-.24c-151.68 2.25-145.22-1.88-145.24 4 0 4.11-.17 13.91-.18 28.63h2.38c.31-18.6.22-28.73 1.84-28.73 289.82 0 283-6.18 296.67 3.6 7.16 5.11-2.2 5-2.2 12.78 0 13.46 23.2 14.11 23.2-4a26.42 26.42 0 00-4.16-12.21c0-2 7.44-.76 15.75-5.3 8.09-4.4 9.2 9.08 28.72 9.08s28.34-18.62 30.27-18.62 10.81 18.53 30.26 18.53 20.62-13.48 28.71-9.08c8.33 4.54 15.75 3.34 15.75 5.3a26.5 26.5 0 00-4.16 12.21c0 18.14 23.2 17.48 23.2 4 0-7.83-9.36-7.67-2.19-12.8 13.67-9.76 7.16-3.63 297-3.63 1.48 0 1.23 10.19 1.56 28.92h2.2c0-14.69-.06-24.45-.07-28.56 0-5.9 6.44-1.78-145.25-4v.25c-97.64-1.15-128.48-1.6-145.58-.39a22.69 22.69 0 00-18.84 12.11c0 2.52 8.79-.28 8.79 8.17a7.84 7.84 0 01-.69 3.13 7.76 7.76 0 01-1.89 2.58 7.57 7.57 0 01-2.76 1.62 7.84 7.84 0 01-3.19.36c-9 0-15.42-12.14-5.63-23 2.19-2.43 4.83-3.06 4.83-5 0-.19-.68-.58-1.08-.63A53 53 0 01471 51.3c-2.18-.83-2.31-1.26-1.73-3.47 3.16-11.82-21.13-5 345.71-5 3.21 0 2.57 16.28 3 45.87h4.48c0-21.77-.08-35.24-.12-38.9-.13-17.27 35.22-13.8-348.42-13.8zm-43.78-22.72a3.16 3.16 0 011.26.18 3.07 3.07 0 011.08.69 2.89 2.89 0 01.7 1.06 2.86 2.86 0 01.2 1.26A11.67 11.67 0 01424.53 28c-1-.48-.74-2.09-.79-3.48-.18-3.84 1.82-11.24 6.4-11.24zM393.37 23.8a11.65 11.65 0 01-2.4-7.33 3 3 0 01.22-1.22 3 3 0 01.69-1.05 3 3 0 011.05-.66 3.1 3.1 0 011.24-.19c4.57 0 6.56 7.4 6.45 11.21 0 1.39.26 3-.81 3.48a11.7 11.7 0 01-6.44-4.24zm61.45 35.36a26.72 26.72 0 01-12 2.57c-21.11 0-28.84-20.27-30.65-20.27s-9.53 20.27-30.65 20.27a26.63 26.63 0 01-21.6-10.27c0-2 16.16-11.05 11.74-27.62v.07A3.83 3.83 0 00369.9 22c-1.68 0-3.33 7.1-11.29 7.1-15 0-13.65-26.64 5.66-26.64a21 21 0 0119.22 18.69 34.43 34.43 0 01-9.06 27.18c0 2.63 16.95 4.47 25.37-11.43 3.49-6.55 3-3.09 12.41-3.09s8.94-3.46 12.41 3.09C433 52.77 450 50.93 450 48.3a34.32 34.32 0 01-9.09-27.24 21 21 0 0119.18-18.7c19.33 0 20.74 26.65 5.67 26.65-8 0-9.67-7.1-11.35-7.1a3.77 3.77 0 00-1.74 1.93c-4.42 16.57 11.73 25.61 11.73 27.62a26.64 26.64 0 01-9.58 7.7z"/>
</symbol>

<symbol fill="currentColor" id="book-read" viewBox="0 0 74 84">
 <path d="M74 65.264c-.834.13-1.65.36-2.43.684a9.608 9.608 0 00-1.756 1.668c1.69 1.598 1.445 3.782 1.896 5.69a13.53 13.53 0 01.259 3.252 1.455 1.455 0 01-1.554 1.49c-1.378.137-2.754.41-4.128.648-3.607.626-7.213 1.27-10.82 1.895-3.255.563-6.507 1.152-9.768 1.643-1.415.213-2.849.205-4.274.302-3.638.246-7.276.43-10.912.758a26.925 26.925 0 01-11.271-1.472c-1.338-.457-2.797-.615-4.132-1.08a6.597 6.597 0 01-3.399-3.03 13.544 13.544 0 01-2.127-4.317 20.31 20.31 0 01-.261-1.365c-.471-3.187-.954-6.37-1.395-9.564-.381-2.769-.679-5.555-1.072-8.321-.755-5.317-1.492-10.64-2.347-15.934-.79-4.896-1.742-9.755-2.593-14.637-.647-3.706-1.223-7.428-1.882-11.13-.269-1.515 1.106-1.872 1.878-2.425a11.96 11.96 0 017.417-2.28c3.43.124 6.762-.594 10.129-1.217 2.51-.464 5.03-.828 7.55-1.2 4.877-.721 9.754-1.428 14.633-2.12 5.437-.783 10.874-1.563 16.31-2.34 1.955-.28 3.907-.59 5.862-.834.957-.12 1.685.115 1.806 1.271.33 3.138.726 6.264 1.093 9.396.53 4.524 1.037 9.053 1.594 13.573.5 4.058 1.032 8.11 1.595 12.156.763 5.425 1.611 10.832 2.36 16.26.505 3.654.897 7.33 1.355 10.994.1.535.229 1.064.384 1.586zm-6.2 2.191c-1.823.126-3.647.204-5.467.387-4.293.43-8.584.914-12.875 1.37-3.512.373-7.025.73-10.536 1.106-3.196.342-6.39.71-9.585 1.046-1.8.189-3.6.34-5.399.502-2.04.184-4.08.35-6.12.563a1.72 1.72 0 00-.472.614c1.68-.112 3.202-.183 4.724-.32 5.284-.48 10.569-.952 15.851-1.488 3.834-.39 7.665-.876 11.497-1.32 3.077-.355 6.157-.677 9.232-1.076 3.068-.398 6.131-.874 9.197-1.316l.65.281c-.347.373-.81.616-1.314.69-3.021.34-6.044.634-9.066.962-2.206.24-4.411.518-6.617.76-2.25.248-4.502.46-6.751.71-4.066.453-8.147 1.238-12.192 1.307-5.124.088-10.145 1.48-15.235 1.745-.361.1-.701.265-1.004.488 1.593.193 3.201.212 4.798.057 4.784-.434 9.567-.9 14.35-1.394 5.17-.539 10.342-1.058 15.506-1.719 5.318-.68 10.623-1.587 15.943-2.245a1.893 1.893 0 001.957-1.876l-1.072.166zM64.168 1.497c-1.504.214-2.942.428-4.382.623-4.843.654-9.69 1.26-14.531 1.961-6.182.895-12.36 1.831-18.536 2.81-4.089.645-8.17 1.372-12.253 2.088-1.804.316-1.771.338-1.517 2.07.632 4.306 1.21 8.623 1.859 12.925.328 2.17.715 4.326 1.163 6.47.627 2.997 1.42 5.95 1.987 8.963.593 3.154.938 6.371 1.513 9.53.568 3.126 1.268 6.22 1.948 9.317.739 3.366 1.528 6.716 2.275 10.08.084.513.139 1.031.163 1.551 16.025-2.077 32.262-4.03 48.613-5.475-.188-1.027-.352-1.743-.447-2.472-.621-4.817-1.181-9.647-1.85-14.455-.827-5.936-1.803-11.842-2.598-17.784-.713-5.33-1.257-10.693-1.897-16.037-.471-3.94-.976-7.874-1.51-12.165zm-50.584 23.71a1.11 1.11 0 00.05-.414c-.659-4.283-1.316-8.566-2.024-12.837a.992.992 0 00-.784-.543c-3.1-.22-5.783 1.195-8.387 2.808a1.316 1.316 0 00-.392 1.055c.235 1.802.547 3.589.84 5.379.412 2.514.83 5.026 1.273 7.701 2.835-2.486 5.811-3.673 9.424-3.149zM6.855 44.741c1.503-.902 3.051-1.923 4.678-2.78a7.036 7.036 0 015.362-.416 12.777 12.777 0 00-.135-1.53c-.745-3.518-1.507-7.032-2.284-10.54a.871.871 0 00-.408-.62 8.45 8.45 0 00-2.835-.502A8.799 8.799 0 005.73 30.87a2.283 2.283 0 00-.701 2.238c.663 3.899 1.236 7.818 1.827 11.633zm4.764 29.461c2.356-4.808 6.406-5.089 10.82-4.37-.055-.464-.062-.696-.112-.914-.594-2.598-1.213-5.189-1.785-7.793a2.196 2.196 0 00-2.41-1.93c-1.813 0-3.597.456-5.187 1.326-2.463 1.21-3.437 2.776-3.164 4.816.072.657.178 1.309.317 1.954.554 2.278-.016 4.863 1.52 6.911zM8.745 59.78c3.208-2.866 6.574-4.417 10.593-4.194l-1.832-10.28a12.117 12.117 0 00-2.814-.622 9.422 9.422 0 00-5.802 2.379 3.004 3.004 0 00-1.24 3.33c.239 1.183.404 2.38.493 3.584.208 1.853.387 3.711.602 5.803zm7.674 17.399l-.024.347c16.794-.698 33.548-3.191 50.332-4.735a402.664 402.664 0 01-21.647 2.984c-7.272.795-14.554 1.37-21.831 2.043l.008.386c14.923-1.304 29.86-1.307 44.848-3.73l-.528-3.043-51.158 5.748zm1.387 2.122l-.04.396c.499.17 1.018.272 1.545.307.85-.048 1.902-.627 2.512-.327 1.362.67 2.61.05 3.921-.055 1.884-.15 3.77-.036 5.654-.167 3.24-.227 6.48-.6 9.72-.825 1.727-.12 3.459.057 5.181-.113 1.965-.195 3.92-.671 5.885-.947 3.973-.559 7.951-1.062 11.927-1.594.829-.11 1.656-.247 2.484-.371a5.077 5.077 0 00-1.765.037c-4.62.478-9.238 1.029-13.858 1.39-5.304.415-10.61.644-15.916.983-3.188.203-6.377.458-9.565.697-2.562.191-5.123.388-7.685.589zm-1.562-3.4c3.114.836 50.499-4.643 51.875-6.043L16.244 75.9zm8.219 5.866c15.364.516 30.585-1.996 45.773-5.195-15.273 1.38-30.448 4.926-45.773 5.195zm1.06-11.035l.017.41 43.817-4.685-.022-.55-43.812 4.825zm-8.833.618c-2.125.75-3.657 2.336-3.772 3.787a3.742 3.742 0 002.408 4.073c-1.363-2.68-1.32-4.004 1.364-7.86zM1.58 12.92a44.712 44.712 0 014.564-2.246c1.527-.461 3.08-.83 4.65-1.106-1.38-1.314-7.755.817-9.214 3.352zm7.967 48.654a15.205 15.205 0 019.47-3.988c-1.641-1.595-8.47 1.16-9.47 3.988zm59.3 10.721l1.45.349-.645-3.46-.414.063-.39 3.048zM10.638 44.27c.633-.22 1.26-.47 1.903-.654a11.67 11.67 0 011.862-.408c.586-.039 1.174-.044 1.76-.014a4.836 4.836 0 00-5.525 1.076zm11.878 27.108c-2.611-.612-2.611-.612-3.25.32l3.25-.32zm-5.552 7.02l.052.31 4.779-.527-.014-.253-4.817.47z"  />
  <path d="M35.119 8.06c2.087-.202 4.174-.376 6.258-.612 3.354-.38 6.71-.739 10.056-1.225 2.567-.374 5.125-.9 7.678-1.417 2.048-.416 2.121-.474 2.443 1.489.817 4.983 1.655 9.964 2.3 14.983.668 5.21 1.072 10.472 1.685 15.694.311 2.655.878 5.262 1.239 7.91.566 4.16 1.041 8.338 1.588 12.502.095.882.293 1.75.59 2.585a1.192 1.192 0 01-.864 1.833 52.266 52.266 0 01-7.23 1.644c-5.288.566-10.586.9-15.88 1.242-3.709.24-7.417.269-11.127.528-2.275.159-4.551.565-6.825.88a.901.901 0 01-1.24-.805c-1.015-5.606-2.101-11.195-3.103-16.805-1.008-5.645-1.929-11.312-2.917-16.962-.908-5.193-1.865-10.373-2.776-15.565-.238-1.358-.403-2.735-.562-4.111a.838.838 0 01.817-1.075c2.008-.274 4.01-.615 6.015-.933 2.738-.434 5.476-.88 8.215-1.3 1.21-.187 2.426-.323 3.64-.48zm15.513 52.653l.002.1c1.773-.177 3.547-.333 5.318-.538 1.846-.213 3.694-.434 5.531-.746a1.88 1.88 0 00.93-.872c.508-.809.768-1.854 1.439-2.45a1.64 1.64 0 00.667-1.723c-.37-2.225-.776-4.444-1.076-6.683-.751-5.619-1.44-11.25-2.176-16.87-.43-3.284-.939-6.553-1.35-9.84-.41-3.288-.73-6.593-1.117-9.886-.131-1.118-1.97-2.711-2.97-2.542-3.249.55-6.493 1.143-9.737 1.732-2.666.484-5.324 1.093-7.998 1.456-4.687.637-9.384 1.118-14.075 1.7-.42.083-.806.29-1.108.594-.461.447-.774 1.046-1.236 1.492a2.58 2.58 0 00-.768 2.782c.292 1.105.371 2.28.559 3.421.643 3.903 1.253 7.814 1.949 11.704.88 4.923 1.816 9.832 2.762 14.738.63 3.266 1.288 6.527 2.012 9.768.188.66.533 1.265 1.004 1.764.627.685 1.31 1.317 2.043 1.888.348.347.792.581 1.275.674.99 0 1.978-.065 2.96-.191 1.973-.169 3.947-.33 5.92-.525 3.08-.303 6.16-.63 9.24-.947zM18.125 11.96c.045.7.041 1.095.099 1.475.612 4.04 1.206 8.083 1.86 12.112.7 4.302 1.465 8.588 2.188 12.884.505 2.996.928 6.011 1.49 8.992.978 5.178 2.05 10.331 3.046 15.505.194 1.005.233 1.651 1.736 1.513 4.335-.4 8.677-.366 13.016-.692a707.72 707.72 0 0020.03-1.792 44.58 44.58 0 005.57-1.28L60.854 9.912l-.42.058c-.033.245-.049.493-.046.741.178 2.263.288 4.538.569 6.781.706 5.636 1.484 11.257 2.245 16.882.428 3.162.877 6.32 1.32 9.48.555 3.959 1.055 7.93 1.717 11.865.153.91-.091 1.137-.839 1.308a1.756 1.756 0 00-1.474 1.564c-.112.734-.28 1.464-.43 2.224-2.294.245-4.53.481-6.764.723-3.112.337-6.224.714-9.337 1.003-1.678.155-3.374.002-5.035.27a89.826 89.826 0 01-10.74.972 1.164 1.164 0 01-1.437-.923c-.317-.991-.8-2.077-2.352-1.478a1.336 1.336 0 01-.753-.853c-.669-3.493-1.227-7.014-1.915-10.502-.712-3.615-1.617-7.18-2.28-10.806-.542-2.968-.794-6.006-1.276-8.99-.673-4.177-1.465-8.327-2.139-12.503a2.373 2.373 0 01.379-1.773c1.092-1.143 2.064-2.286 2.12-3.807 3.734-.32 7.327-.522 10.906-.965 3.533-.436 7.055-1.086 10.576-1.696 3.504-.607 7.002-1.281 10.502-1.926l-.034-.346-35.792 4.746zm42.312-3.4c-.243-2.544-.25-2.55-2.215-1.968-.05 1.388.056 1.485 2.215 1.967z" />
</symbol>


<symbol fill="currentColor" id="calendar" viewBox="0 0 18 18">
  <path fill-rule="evenodd" clip-rule="evenodd" d="M12.75 2.25h1.125c1.036 0 1.875.84 1.875 1.875v9.755c0 1.036-.84 1.875-1.875 1.875h-9.75A1.875 1.875 0 012.25 13.88V4.125c0-1.036.84-1.875 1.875-1.875H5.25v-.375a.375.375 0 11.75 0v.375h6v-.375a.375.375 0 01.75 0v.375zM12 3H6v.375a.375.375 0 11-.75 0V3H4.125C3.504 3 3 3.504 3 4.125V6h12V4.125C15 3.504 14.496 3 13.875 3H12.75v.375a.375.375 0 01-.75 0V3zM3 6.75h12v7.13c0 .622-.504 1.125-1.125 1.125h-9.75A1.125 1.125 0 013 13.88V6.75zm.75 1.125c0-.207.168-.375.375-.375h1.5c.207 0 .375.168.375.375v1.5a.375.375 0 01-.375.375h-1.5a.375.375 0 01-.375-.375v-1.5zM4.5 9v-.75h.75V9H4.5z"/>
 </symbol>

<symbol fill="#A9956D" fill-opacity=".5" id="ornament-corner" viewBox="0 0 72 75">
  <path fill-rule="evenodd" clip-rule="evenodd" d="M68.93 51.675c-4.596-3.94-20.03-9.523-15.104-17.404-.657 5.91 4.597 9.194 10.508 11.821 0 0-.657-9.522-9.851-12.15C65.319 35.257 65.647 44.78 68.93 51.676z" />
  <path fill-rule="evenodd" clip-rule="evenodd" d="M53.17 70.72c14.447 7.224 22.328-28.896-12.807-28.568 10.508-.657 33.165 14.776 15.105 23.97 16.418-12.806-9.851-24.627-19.702-23.313 8.866.656 18.717 5.254 10.836 9.522 4.597-6.239-14.448-8.209-18.06-8.537 24.627-9.851 47.941 8.209 33.822 26.926-2.299 2.298-5.254 3.94-8.21 4.269-6.567.328-3.94-6.568-.985-4.27zM66.632 31.644c-4.597-3.94-8.537-4.925-10.836-4.597 7.553-.985 13.792 3.284 15.762-1.313-.985.328-1.314.985-4.597-.985-5.254-2.627-8.866-2.627-11.493-.985.985-.657 1.642-1.314 1.313-3.284 0-.985.329-1.642.329-1.642-2.627 1.642-4.597 5.582-3.94 7.88 0-1.313 0-3.283 2.955-6.238-.986 1.97-2.627 4.269-2.956 6.239 5.254-5.91 13.792-.657 15.434 0-6.24-1.642-10.18-2.627-14.777.656 1.313-.328 4.269-.656 12.478 4.598-4.597-1.642-7.88-4.598-12.806-4.598 3.283 1.642 4.597 3.613 6.239 6.568-1.314-2.299-3.612-4.597-6.896-6.567-.657 4.597 5.254 6.895 8.866 8.537-.985-.657-.985-.985-.985-1.97-.985-3.94-3.94-5.254-5.91-5.91 6.238 1.97 8.865 6.895 13.79 4.596-.656.329-.985-.328-1.97-.985zM26.6.094c2.955 5.582 4.268 21.672 12.806 19.045-5.582-.657-7.224-6.567-8.538-13.135 0 0 9.195 2.956 9.523 12.807C42.033 7.646 32.51 5.019 26.6.094z" />
  <path fill-rule="evenodd" clip-rule="evenodd" d="M4.27 10.273C.988-5.488 38.094-3.847 28.899 30.303c2.956-10.179-5.91-35.791-19.702-21.015C25.943-3.19 30.54 25.378 26.6 34.572c1.97-8.866-.329-19.373-6.24-13.135 7.225-2.626 4.27 16.09 3.613 19.702C40.063 19.796 28.57-7.13 6.898 1.736 3.942 3.049 1.644 5.348.33 8.63c-1.97 5.91 5.583 4.926 3.94 1.642zM45.645 7.318c2.299 5.91 2.299 9.522 1.642 11.821 2.955-6.896 0-14.12 5.254-15.105-.657.985-1.314 1.314-.329 4.926 1.314 5.582.329 9.194-1.97 11.492.985-.656 1.97-1.313 3.612-.656.985.328 1.314 0 1.314 0-1.97 2.298-6.24 3.283-8.21 1.97 1.314.328 3.284.657 6.568-.985-1.97.328-4.597.985-6.567.985 6.895-3.612 3.94-13.135 3.94-14.777 0 6.24-.328 10.508-4.597 14.12.657-1.313 1.97-3.94-1.314-13.134.657 4.597 2.627 8.537 1.314 13.463-.657-3.94-2.299-5.583-4.926-7.881 1.97 1.642 3.612 4.925 4.926 8.209-4.926-.328-5.582-6.896-6.24-10.836.33 1.313.986 1.313 1.643 1.642 3.612 1.97 4.269 5.254 4.597 7.224-.657-6.568-4.597-10.18-1.314-14.777-.328.985.329 1.642.657 2.299z" />
 </symbol>

 <symbol fill="currentColor" id="ornament-index" viewBox="0 0 71 20">
  <path d="M28.45 16.59a6.202 6.202 0 01-2.277 1.652 6.255 6.255 0 01-2.78.483c-4.872 0-6.21-3.447-6.547-3.447-.462 0-4.774 3.588-9.719 3.588C3.833 18.866 0 17.22 0 13.18a6.399 6.399 0 011.923-4.223 6.515 6.515 0 014.29-1.844 6.835 6.835 0 014.088 1.476c.142 0 2.173-2.88 5.222-2.88a3.845 3.845 0 012.764 1.212 6.363 6.363 0 012.96-.936h.326a4.343 4.343 0 013.079 1.354 4.233 4.233 0 011.154 3.134c0 .316-.052.527.175.527.188 0 .331.015.331.121 0 .14-.245.141-.26.141-.148 0-.299-.032-.38.206-.804 2.313-2.502 3.464-2.502 3.128 0-.12.122-.152.207-.212a4.74 4.74 0 001.86-2.917c0-.103-.061-.15-.195-.15a12.838 12.838 0 00-3.862 1.287 24.423 24.423 0 00-3.958 2.479 7.336 7.336 0 002.813 2.414 7.414 7.414 0 003.645.74 6.847 6.847 0 004.644-1.69c.048.002.093.02.13.05l-.005-.007zM15.477 6.265h-.144a6.017 6.017 0 00-2.689.694 5.955 5.955 0 00-2.08 1.823c0 .258.947 1.192.947 2.425 0 1.907-2.093 2.039-2.093.048.045-.82.284-1.617.697-2.329 0-.308-1.676-1.278-3.498-1.278C3.568 7.646.24 9.984.24 13.385c0 2.616 2.467 5.233 6.664 5.233 3.708 0 7.265-2.53 9.445-4.057a.243.243 0 00.104-.322c-.53-1.454-.027-1.171-1.557-.555a9.465 9.465 0 01-.873.282c-.01 0-.104-.032-.104-.08 0-.231.856-.253 1.905-.866.324-.189.122-.386.122-1.225 0-2.995 1.934-4.28 1.934-4.569a2.826 2.826 0 00-2.402-.961zm9.866 4.172c0-1.28-.727-4.247-3.97-4.247-1.402 0-2.932.782-2.932 1.04.207.492.318 1.018.327 1.55 0 2.888-2.527 3.948-2.424 4.319.344 1.252.38 1.13.43 1.13.221 0 1.158-.802 3.973-2.086 4.178-1.906 4.596-.456 4.596-1.707zm-9.194 1.388c.072.593.067.784.187.784a4.933 4.933 0 001.52-1.568 4.88 4.88 0 00.688-2.065c0-.448-.24-1.44-.46-1.44a5.396 5.396 0 00-1.463 1.925 5.348 5.348 0 00-.471 2.364zm-4.89-.582a3.185 3.185 0 00-.892-2.14 3.099 3.099 0 00-.743 2.105c0 1.487 1.464 1.823 1.635.037v-.002zm30.48 5.198c.312-.038 1.384 1.626 4.597 1.626 4.298 0 6.545-2.909 6.545-3.257 0-.14-5.357-3.619-7.85-3.619-.111 0-.158.052-.158.165 0 1.85 2.423 3.155 1.98 3.155a1.073 1.073 0 01-.243-.116c-2.416-1.8-1.806-3.214-2.364-3.214-.164 0-.398.032-.398-.13 0-.19.494.019.498-.308 0-.227.018-.787.018-.843a4.301 4.301 0 011.336-2.917 4.38 4.38 0 012.995-1.203 6.66 6.66 0 013.127.934A3.797 3.797 0 0154.56 5.46c3.17 0 4.86 2.755 5.15 2.755a6.845 6.845 0 014.075-1.499 6.212 6.212 0 012.455.48A6.163 6.163 0 0168.3 8.6a6.096 6.096 0 011.327 2.102c.292.783.42 1.617.373 2.451 0 .162-.324 1.357-.392 1.59-.289.99-2.468 3.675-6.81 3.675-4.65 0-9.402-3.447-9.55-3.447-.322 0-1.75 3.573-6.701 3.573-3.098 0-4.798-1.816-4.798-2.1v-.009l-.009.005zm21.2 1.733c6.488-.375 6.776-4.828 6.776-5.325a6.968 6.968 0 00-.145-1.365 7.504 7.504 0 00-.885-1.608c-.478-1.036-2.654-2.63-5.3-2.63a4.778 4.778 0 00-3.528 1.281c.44.697.694 1.494.739 2.315.049.331-.028.669-.217.947a1.361 1.361 0 01-.802.558.104.104 0 01-.074 0c-.375-.153-1.009-.303-1.009-1.577.12-.837.456-1.628.976-2.298a5.671 5.671 0 00-2.04-1.837 5.732 5.732 0 00-2.672-.671 3.11 3.11 0 00-2.573 1.01c0 .321 1.931 1.63 1.931 4.5 0 .983-.22 1.11.097 1.265.316.154.608.308.924.436.503.205.976.227.976.351 0 0 0 .103-.09.103a11.972 11.972 0 01-1.977-.72c-.068 0-.104.05-.142.164a5.68 5.68 0 00-.336 1.05c0 .225 5.583 4.17 9.371 4.05zM48.504 6.04a4.091 4.091 0 00-2.745 1.37 4.017 4.017 0 00-1 2.88c0 .59.026.605.312.632 4.473.411 7.82 3.05 8.227 3.05.065 0 .104-.043.144-.141.04-.099.328-.968.328-1.029 0-.26-2.44-1.593-2.44-4.18.02-.559.134-1.11.337-1.631a4.28 4.28 0 00-3.163-.951zm5.412 5.44c-.18-3.019-1.868-4.197-1.921-4.197-.267 0-.445 1.04-.445 1.476.07.728.302 1.431.677 2.06a4.998 4.998 0 001.497 1.58c.157 0 .142-.186.192-.919zm6.42-1.302c-.035-.188-.486-1.383-.667-1.383-.265 0-.916 1.082-.916 2.03 0 .215.103 1.262.756 1.262.806-.004.97-1.13.826-1.909zm-16.527-.205C43.809 5.079 40.581 0 34.756 0c-4.152 0-8.447 4.563-8.447 10.049.05 2.342.795 4.617 2.141 6.542.126.122 2.683 3.409 6.54 3.409 4.008 0 6.448-3.218 6.756-3.564l-.006.005a11.267 11.267 0 002.069-6.467zm-8.75 9.696c-4.381 0-7.933-4.329-7.933-9.665 0-5.337 3.552-9.666 7.933-9.666 4.38 0 7.933 4.33 7.933 9.666s-3.552 9.664-7.933 9.664z" />
 </symbol>

 <symbol fill="currentColor" id="ornament-line" viewBox="0 0 71 14">
  <path fill-rule="evenodd" clip-rule="evenodd" d="M3.759 7.504H.505a.505.505 0 110-1.008h3.2a2.292 2.292 0 00-.045-.023l-.07-.035c-1.578-.88-2.28-2.424-1.876-4.128.18-.764.667-1.42 1.37-1.848C3.584.158 4.154 0 4.719 0c.242 0 .482.029.715.087.871.217 1.643.935 1.921 1.785.232.71.1 1.414-.37 1.98-.62.745-1.76.906-2.493.354-.671-.505-.853-1.493-.405-2.2.085-.135.208-.217.38-.203a.465.465 0 01.388.242.405.405 0 01-.023.414.796.796 0 00-.06.716c.092.233.278.401.513.461a.944.944 0 00.78-.135c.27-.18.457-.485.503-.815.085-.614-.208-1.027-.468-1.266C5.618.978 4.86.781 4.212.93c-1.193.273-1.898 1.39-1.675 2.655.321 1.825 2.336 2.689 4.134 2.911h2.487V4.594a.505.505 0 111.01 0v1.901H71v1.01H10.166v1.9a.505.505 0 01-1.009 0v-1.9H6.723c-1.798.222-3.812 1.086-4.132 2.91-.222 1.266.481 2.382 1.674 2.656.647.148 1.407-.05 1.889-.492.26-.238.553-.652.467-1.266a1.186 1.186 0 00-.502-.814.946.946 0 00-.78-.136.753.753 0 00-.514.461.795.795 0 00.061.717.405.405 0 01.023.413.464.464 0 01-.387.242.428.428 0 01-.382-.202c-.447-.708-.266-1.695.406-2.201.732-.552 1.872-.39 2.492.354.472.567.604 1.27.371 1.981-.278.85-1.05 1.567-1.921 1.785a3.107 3.107 0 01-2.35-.375c-.703-.428-1.19-1.083-1.37-1.847-.404-1.705.297-3.248 1.875-4.128l.066-.034.05-.025z"/>
 </symbol>

 <symbol fill="currentColor" id="ornament-separator" viewBox="0 0 62 9">
  <path d="M36.3 8.416c6.858-.19 15.455-6.245 21.433-6.41a6.228 6.228 0 013.14.648c.567.3.867.363.867.467a.05.05 0 01-.049.048 10.364 10.364 0 00-3.788-.727c-6.178.17-11.272 6.058-20.293 6.306a14.771 14.771 0 01-6.619-1.2 14.43 14.43 0 01-6.205 1.345C15.546 9.148 9.93 2.38 3.231 2.565a8.067 8.067 0 00-3.123.814.112.112 0 01-.108-.1 6.645 6.645 0 013.93-1.272c6.263-.174 13.52 6.607 22.043 6.372a9.169 9.169 0 004.51-1.143s-2.663-1.493-2.729-3.883a3.227 3.227 0 016.178-1.422c.172.39.264.811.271 1.238.064 2.329-2.709 4.056-2.709 4.056a10.4 10.4 0 004.805 1.19zm-2.44-5.3A2.978 2.978 0 0030.895.34a2.927 2.927 0 00-2.78 2.974c.06 2.13 2.87 3.658 2.87 3.658s2.934-1.637 2.873-3.856z" />
 </symbol>

</svg>