<svg id="book-read" viewBox="0 0 74 84" fill="currentColor" xmlns="http://www.w3.org/2000/svg">
  <path d="M74 65.264c-.834.13-1.65.36-2.43.684a9.608 9.608 0 00-1.756 1.668c1.69 1.598 1.445 3.782 1.896 5.69a13.53 13.53 0 01.259 3.252 1.455 1.455 0 01-1.554 1.49c-1.378.137-2.754.41-4.128.648-3.607.626-7.213 1.27-10.82 1.895-3.255.563-6.507 1.152-9.768 1.643-1.415.213-2.849.205-4.274.302-3.638.246-7.276.43-10.912.758a26.925 26.925 0 01-11.271-1.472c-1.338-.457-2.797-.615-4.132-1.08a6.597 6.597 0 01-3.399-3.03 13.544 13.544 0 01-2.127-4.317 20.31 20.31 0 01-.261-1.365c-.471-3.187-.954-6.37-1.395-9.564-.381-2.769-.679-5.555-1.072-8.321-.755-5.317-1.492-10.64-2.347-15.934-.79-4.896-1.742-9.755-2.593-14.637-.647-3.706-1.223-7.428-1.882-11.13-.269-1.515 1.106-1.872 1.878-2.425a11.96 11.96 0 017.417-2.28c3.43.124 6.762-.594 10.129-1.217 2.51-.464 5.03-.828 7.55-1.2 4.877-.721 9.754-1.428 14.633-2.12 5.437-.783 10.874-1.563 16.31-2.34 1.955-.28 3.907-.59 5.862-.834.957-.12 1.685.115 1.806 1.271.33 3.138.726 6.264 1.093 9.396.53 4.524 1.037 9.053 1.594 13.573.5 4.058 1.032 8.11 1.595 12.156.763 5.425 1.611 10.832 2.36 16.26.505 3.654.897 7.33 1.355 10.994.1.535.229 1.064.384 1.586zm-6.2 2.191c-1.823.126-3.647.204-5.467.387-4.293.43-8.584.914-12.875 1.37-3.512.373-7.025.73-10.536 1.106-3.196.342-6.39.71-9.585 1.046-1.8.189-3.6.34-5.399.502-2.04.184-4.08.35-6.12.563a1.72 1.72 0 00-.472.614c1.68-.112 3.202-.183 4.724-.32 5.284-.48 10.569-.952 15.851-1.488 3.834-.39 7.665-.876 11.497-1.32 3.077-.355 6.157-.677 9.232-1.076 3.068-.398 6.131-.874 9.197-1.316l.65.281c-.347.373-.81.616-1.314.69-3.021.34-6.044.634-9.066.962-2.206.24-4.411.518-6.617.76-2.25.248-4.502.46-6.751.71-4.066.453-8.147 1.238-12.192 1.307-5.124.088-10.145 1.48-15.235 1.745-.361.1-.701.265-1.004.488 1.593.193 3.201.212 4.798.057 4.784-.434 9.567-.9 14.35-1.394 5.17-.539 10.342-1.058 15.506-1.719 5.318-.68 10.623-1.587 15.943-2.245a1.893 1.893 0 001.957-1.876l-1.072.166zM64.168 1.497c-1.504.214-2.942.428-4.382.623-4.843.654-9.69 1.26-14.531 1.961-6.182.895-12.36 1.831-18.536 2.81-4.089.645-8.17 1.372-12.253 2.088-1.804.316-1.771.338-1.517 2.07.632 4.306 1.21 8.623 1.859 12.925.328 2.17.715 4.326 1.163 6.47.627 2.997 1.42 5.95 1.987 8.963.593 3.154.938 6.371 1.513 9.53.568 3.126 1.268 6.22 1.948 9.317.739 3.366 1.528 6.716 2.275 10.08.084.513.139 1.031.163 1.551 16.025-2.077 32.262-4.03 48.613-5.475-.188-1.027-.352-1.743-.447-2.472-.621-4.817-1.181-9.647-1.85-14.455-.827-5.936-1.803-11.842-2.598-17.784-.713-5.33-1.257-10.693-1.897-16.037-.471-3.94-.976-7.874-1.51-12.165zm-50.584 23.71a1.11 1.11 0 00.05-.414c-.659-4.283-1.316-8.566-2.024-12.837a.992.992 0 00-.784-.543c-3.1-.22-5.783 1.195-8.387 2.808a1.316 1.316 0 00-.392 1.055c.235 1.802.547 3.589.84 5.379.412 2.514.83 5.026 1.273 7.701 2.835-2.486 5.811-3.673 9.424-3.149zM6.855 44.741c1.503-.902 3.051-1.923 4.678-2.78a7.036 7.036 0 015.362-.416 12.777 12.777 0 00-.135-1.53c-.745-3.518-1.507-7.032-2.284-10.54a.871.871 0 00-.408-.62 8.45 8.45 0 00-2.835-.502A8.799 8.799 0 005.73 30.87a2.283 2.283 0 00-.701 2.238c.663 3.899 1.236 7.818 1.827 11.633zm4.764 29.461c2.356-4.808 6.406-5.089 10.82-4.37-.055-.464-.062-.696-.112-.914-.594-2.598-1.213-5.189-1.785-7.793a2.196 2.196 0 00-2.41-1.93c-1.813 0-3.597.456-5.187 1.326-2.463 1.21-3.437 2.776-3.164 4.816.072.657.178 1.309.317 1.954.554 2.278-.016 4.863 1.52 6.911zM8.745 59.78c3.208-2.866 6.574-4.417 10.593-4.194l-1.832-10.28a12.117 12.117 0 00-2.814-.622 9.422 9.422 0 00-5.802 2.379 3.004 3.004 0 00-1.24 3.33c.239 1.183.404 2.38.493 3.584.208 1.853.387 3.711.602 5.803zm7.674 17.399l-.024.347c16.794-.698 33.548-3.191 50.332-4.735a402.664 402.664 0 01-21.647 2.984c-7.272.795-14.554 1.37-21.831 2.043l.008.386c14.923-1.304 29.86-1.307 44.848-3.73l-.528-3.043-51.158 5.748zm1.387 2.122l-.04.396c.499.17 1.018.272 1.545.307.85-.048 1.902-.627 2.512-.327 1.362.67 2.61.05 3.921-.055 1.884-.15 3.77-.036 5.654-.167 3.24-.227 6.48-.6 9.72-.825 1.727-.12 3.459.057 5.181-.113 1.965-.195 3.92-.671 5.885-.947 3.973-.559 7.951-1.062 11.927-1.594.829-.11 1.656-.247 2.484-.371a5.077 5.077 0 00-1.765.037c-4.62.478-9.238 1.029-13.858 1.39-5.304.415-10.61.644-15.916.983-3.188.203-6.377.458-9.565.697-2.562.191-5.123.388-7.685.589zm-1.562-3.4c3.114.836 50.499-4.643 51.875-6.043L16.244 75.9zm8.219 5.866c15.364.516 30.585-1.996 45.773-5.195-15.273 1.38-30.448 4.926-45.773 5.195zm1.06-11.035l.017.41 43.817-4.685-.022-.55-43.812 4.825zm-8.833.618c-2.125.75-3.657 2.336-3.772 3.787a3.742 3.742 0 002.408 4.073c-1.363-2.68-1.32-4.004 1.364-7.86zM1.58 12.92a44.712 44.712 0 014.564-2.246c1.527-.461 3.08-.83 4.65-1.106-1.38-1.314-7.755.817-9.214 3.352zm7.967 48.654a15.205 15.205 0 019.47-3.988c-1.641-1.595-8.47 1.16-9.47 3.988zm59.3 10.721l1.45.349-.645-3.46-.414.063-.39 3.048zM10.638 44.27c.633-.22 1.26-.47 1.903-.654a11.67 11.67 0 011.862-.408c.586-.039 1.174-.044 1.76-.014a4.836 4.836 0 00-5.525 1.076zm11.878 27.108c-2.611-.612-2.611-.612-3.25.32l3.25-.32zm-5.552 7.02l.052.31 4.779-.527-.014-.253-4.817.47z"  />
  <path d="M35.119 8.06c2.087-.202 4.174-.376 6.258-.612 3.354-.38 6.71-.739 10.056-1.225 2.567-.374 5.125-.9 7.678-1.417 2.048-.416 2.121-.474 2.443 1.489.817 4.983 1.655 9.964 2.3 14.983.668 5.21 1.072 10.472 1.685 15.694.311 2.655.878 5.262 1.239 7.91.566 4.16 1.041 8.338 1.588 12.502.095.882.293 1.75.59 2.585a1.192 1.192 0 01-.864 1.833 52.266 52.266 0 01-7.23 1.644c-5.288.566-10.586.9-15.88 1.242-3.709.24-7.417.269-11.127.528-2.275.159-4.551.565-6.825.88a.901.901 0 01-1.24-.805c-1.015-5.606-2.101-11.195-3.103-16.805-1.008-5.645-1.929-11.312-2.917-16.962-.908-5.193-1.865-10.373-2.776-15.565-.238-1.358-.403-2.735-.562-4.111a.838.838 0 01.817-1.075c2.008-.274 4.01-.615 6.015-.933 2.738-.434 5.476-.88 8.215-1.3 1.21-.187 2.426-.323 3.64-.48zm15.513 52.653l.002.1c1.773-.177 3.547-.333 5.318-.538 1.846-.213 3.694-.434 5.531-.746a1.88 1.88 0 00.93-.872c.508-.809.768-1.854 1.439-2.45a1.64 1.64 0 00.667-1.723c-.37-2.225-.776-4.444-1.076-6.683-.751-5.619-1.44-11.25-2.176-16.87-.43-3.284-.939-6.553-1.35-9.84-.41-3.288-.73-6.593-1.117-9.886-.131-1.118-1.97-2.711-2.97-2.542-3.249.55-6.493 1.143-9.737 1.732-2.666.484-5.324 1.093-7.998 1.456-4.687.637-9.384 1.118-14.075 1.7-.42.083-.806.29-1.108.594-.461.447-.774 1.046-1.236 1.492a2.58 2.58 0 00-.768 2.782c.292 1.105.371 2.28.559 3.421.643 3.903 1.253 7.814 1.949 11.704.88 4.923 1.816 9.832 2.762 14.738.63 3.266 1.288 6.527 2.012 9.768.188.66.533 1.265 1.004 1.764.627.685 1.31 1.317 2.043 1.888.348.347.792.581 1.275.674.99 0 1.978-.065 2.96-.191 1.973-.169 3.947-.33 5.92-.525 3.08-.303 6.16-.63 9.24-.947zM18.125 11.96c.045.7.041 1.095.099 1.475.612 4.04 1.206 8.083 1.86 12.112.7 4.302 1.465 8.588 2.188 12.884.505 2.996.928 6.011 1.49 8.992.978 5.178 2.05 10.331 3.046 15.505.194 1.005.233 1.651 1.736 1.513 4.335-.4 8.677-.366 13.016-.692a707.72 707.72 0 0020.03-1.792 44.58 44.58 0 005.57-1.28L60.854 9.912l-.42.058c-.033.245-.049.493-.046.741.178 2.263.288 4.538.569 6.781.706 5.636 1.484 11.257 2.245 16.882.428 3.162.877 6.32 1.32 9.48.555 3.959 1.055 7.93 1.717 11.865.153.91-.091 1.137-.839 1.308a1.756 1.756 0 00-1.474 1.564c-.112.734-.28 1.464-.43 2.224-2.294.245-4.53.481-6.764.723-3.112.337-6.224.714-9.337 1.003-1.678.155-3.374.002-5.035.27a89.826 89.826 0 01-10.74.972 1.164 1.164 0 01-1.437-.923c-.317-.991-.8-2.077-2.352-1.478a1.336 1.336 0 01-.753-.853c-.669-3.493-1.227-7.014-1.915-10.502-.712-3.615-1.617-7.18-2.28-10.806-.542-2.968-.794-6.006-1.276-8.99-.673-4.177-1.465-8.327-2.139-12.503a2.373 2.373 0 01.379-1.773c1.092-1.143 2.064-2.286 2.12-3.807 3.734-.32 7.327-.522 10.906-.965 3.533-.436 7.055-1.086 10.576-1.696 3.504-.607 7.002-1.281 10.502-1.926l-.034-.346-35.792 4.746zm42.312-3.4c-.243-2.544-.25-2.55-2.215-1.968-.05 1.388.056 1.485 2.215 1.967z" />
</svg>